<svg version="1.1" viewBox="0.0 0.0 960.0 540.0" fill="none" stroke="none" stroke-linecap="square" stroke-miterlimit="10" xmlns:xlink="http://www.w3.org/1999/xlink" xmlns="http://www.w3.org/2000/svg"><clipPath id="p.0"><path d="m0 0l960.0 0l0 540.0l-960.0 0l0 -540.0z" clip-rule="nonzero"/></clipPath><g clip-path="url(#p.0)"><path fill="#000000" d="m0 0l960.0 0l0 540.0l-960.0 0z" fill-rule="evenodd"/><path fill="#000000" fill-opacity="0.0" d="m32.72441 341.2966l894.55115 0l0 106.99213l-894.55115 0z" fill-rule="evenodd"/><path fill="#ffffff" d="m270.60184 423.47684l0 -6.171875l-6.25 0l0 -7.828125l7.625 0l0 6.234375l17.34375 0l0 -10.734375l-18.71875 0l0 -6.171875l-6.25 0l0 -13.875l6.25 0l0 -6.171875l20.09375 0l0 6.171875l6.3125 0l0 7.765625l-7.6875 0l0 -6.09375l-17.34375 0l0 10.671875l18.71875 0l0 6.03125l6.3125 0l0 14.0l-6.3125 0l0 6.171875l-20.09375 0zm44.503265 0l0 -6.171875l-6.234375 0l0 -18.5l-6.25 0l0 -7.765625l6.25 0l0 -12.28125l7.546875 0l0 12.28125l18.859375 0l0 7.765625l-18.859375 0l0 16.90625l17.46875 0l0 -6.234375l7.625 0l0 7.828125l-6.234375 0l0 6.171875l-20.171875 0zm39.660675 0l0 -6.171875l-6.25 0l0 -26.265625l7.625 0l0 24.671875l17.34375 0l0 -24.671875l7.6875 0l0 26.265625l-6.3125 0l0 6.171875l-20.09375 0zm39.65558 0l0 -6.171875l-6.25 0l0 -20.03125l6.25 0l0 -6.234375l18.78125 0l0 -12.28125l7.625 0l0 38.546875l-6.3125 0l0 6.171875l-20.09375 0zm1.375 -7.765625l17.34375 0l0 -16.90625l-17.34375 0l0 16.90625zm33.417206 7.765625l0 -32.4375l7.625 0l0 32.4375l-7.625 0zm0 -36.875l0 -7.84375l7.625 0l0 7.84375l-7.625 0zm20.878113 36.875l0 -6.171875l-6.25 0l0 -20.03125l6.25 0l0 -6.234375l20.09375 0l0 6.234375l6.3125 0l0 20.03125l-6.3125 0l0 6.171875l-20.09375 0zm1.375 -7.765625l17.34375 0l0 -16.90625l-17.34375 0l0 16.90625zm53.532837 7.765625l0 -6.171875l-6.25 0l0 -32.375l6.25 0l0 -6.171875l20.09375 0l0 6.171875l6.3125 0l0 13.875l-7.6875 0l0 -12.203125l-17.34375 0l0 29.109375l17.34375 0l0 -12.40625l7.6875 0l0 14.0l-6.3125 0l0 6.171875l-20.09375 0zm41.042236 0l0 -6.171875l-6.25 0l0 -32.375l6.25 0l0 -6.171875l20.09375 0l0 6.171875l6.3125 0l0 7.765625l-7.6875 0l0 -6.09375l-17.34375 0l0 10.671875l12.484375 0l0 7.703125l-12.484375 0l0 10.734375l17.34375 0l0 -6.234375l7.6875 0l0 7.828125l-6.3125 0l0 6.171875l-20.09375 0zm41.042236 0l0 -6.171875l-6.25 0l0 -14.0l7.625 0l0 12.40625l17.34375 0l0 -29.109375l-18.71875 0l0 -7.84375l20.09375 0l0 6.171875l6.3125 0l0 32.375l-6.3125 0l0 6.171875l-20.09375 0zm41.042236 0l0 -6.171875l-6.25 0l0 -14.0l7.625 0l0 12.40625l17.34375 0l0 -29.109375l-18.71875 0l0 -7.84375l20.09375 0l0 6.171875l6.3125 0l0 32.375l-6.3125 0l0 6.171875l-20.09375 0zm41.042236 0l0 -6.171875l-6.25 0l0 -32.375l6.25 0l0 -6.171875l20.09375 0l0 6.171875l6.3125 0l0 32.375l-6.3125 0l0 6.171875l-20.09375 0zm1.375 -7.765625l17.34375 0l0 -29.109375l-17.34375 0l0 29.109375z" fill-rule="nonzero"/><path fill="#000000" fill-opacity="0.0" d="m32.72441 310.55905l894.55115 0l0 83.212616l-894.55115 0z" fill-rule="evenodd"/><path fill="#ffffff" d="m383.28635 358.44342l0 -18.484375l3.640625 0l0 -3.59375l3.59375 0l0 -3.640625l4.078125 0l0 3.640625l3.59375 0l0 3.59375l3.6875 0l0 18.484375l-4.078125 0l0 -7.25l-10.484375 0l0 7.25l-4.03125 0zm4.03125 -11.28125l10.484375 0l0 -6.796875l-3.609375 0l0 -3.609375l-3.265625 0l0 3.609375l-3.609375 0l0 6.796875zm31.049347 11.28125l0 -3.609375l-3.640625 0l0 -18.46875l3.640625 0l0 -3.640625l11.265625 0l0 3.640625l3.6875 0l0 7.59375l-4.078125 0l0 -7.203125l-10.484375 0l0 17.6875l10.484375 0l0 -3.25l-3.609375 0l0 -3.640625l-3.671875 0l0 -3.953125l4.078125 0l0 3.5625l7.28125 0l0 7.671875l-3.6875 0l0 3.609375l-11.265625 0zm23.439972 0l0 -3.609375l-3.640625 0l0 -11.234375l3.640625 0l0 -3.640625l11.265625 0l0 3.640625l3.6875 0l0 10.84375l3.640625 0l0 4.0l-4.046875 0l0 -3.609375l-3.28125 0l0 3.609375l-11.265625 0zm0.390625 -4.0l10.484375 0l0 -10.484375l-10.484375 0l0 10.484375zm21.848724 4.0l0 -18.484375l11.3125 0l0 3.640625l3.203125 0l0 -3.640625l7.71875 0l0 3.640625l3.59375 0l0 14.84375l-4.0 0l0 -14.484375l-6.921875 0l0 14.484375l-4.0 0l0 -14.484375l-6.875 0l0 14.484375l-4.03125 0zm33.920624 0l0 -3.609375l-3.640625 0l0 -11.234375l3.640625 0l0 -3.640625l11.265625 0l0 3.640625l3.6875305 0l0 3.953125l-4.0781555 0l0 -3.59375l-10.484375 0l0 3.203125l7.28125 0l0 4.03125l-7.28125 0l0 3.25l10.484375 0l0 -3.6875l4.0781555 0l0 4.046875l-3.6875305 0l0 3.640625l-11.265625 0zm31.439972 0l0 -3.609375l-3.640625 0l0 -18.46875l3.640625 0l0 -3.640625l11.265625 0l0 3.640625l3.6875 0l0 7.59375l-3.6875 0l0 3.203125l3.6875 0l0 7.671875l-3.6875 0l0 3.609375l-11.265625 0zm0.390625 -4.0l10.484375 0l0 -6.890625l-7.28125 0l0 -3.953125l7.28125 0l0 -6.84375l-10.484375 0l0 17.6875zm23.049377 11.234375l0 -3.59375l-3.640625 0l0 -4.0l4.03125 0l0 3.59375l10.515625 0l0 -6.84375l-10.90625 0l0 -3.640625l-3.640625 0l0 -11.234375l4.03125 0l0 10.84375l10.515625 0l0 -10.84375l4.046875 0l0 22.125l-3.640625 0l0 3.59375l-11.3125 0zm19.799316 -10.953125l0 -4.046875l4.03125 0l0 4.046875l-4.03125 0zm0 -7.125l0 -4.0l4.03125 0l0 4.0l-4.03125 0z" fill-rule="nonzero"/></g></svg>